<mxfile host="app.diagrams.net" agent="Mozilla/5.0 (Windows NT 10.0; Win64; x64) AppleWebKit/537.36 (KHTML, like Gecko) Chrome/134.0.0.0 Safari/537.36" version="26.2.2" pages="2">
  <diagram id="6sqXcZv842MMHSqY-emc" name="req">
    <mxGraphModel dx="3207" dy="2464" grid="1" gridSize="10" guides="1" tooltips="1" connect="1" arrows="1" fold="1" page="1" pageScale="1" pageWidth="827" pageHeight="1169" math="0" shadow="0">
      <root>
        <mxCell id="mcRKk9l3YKuYOQQODkug-0" />
        <mxCell id="mcRKk9l3YKuYOQQODkug-1" parent="mcRKk9l3YKuYOQQODkug-0" />
        <mxCell id="mcRKk9l3YKuYOQQODkug-2" value="&lt;p style=&quot;margin: 0px ; margin-top: 4px ; text-align: center&quot;&gt;&amp;lt;&amp;lt;requirement&amp;gt;&amp;gt;&lt;br&gt;&lt;b&gt;Application&lt;/b&gt;&lt;/p&gt;&lt;hr&gt;&lt;p&gt;&lt;/p&gt;&lt;p style=&quot;margin: 0px ; margin-left: 8px ; text-align: left&quot;&gt;Id=&quot;1&quot;&lt;br&gt;&lt;/p&gt;&lt;p style=&quot;margin: 0px ; margin-left: 8px ; text-align: left&quot;&gt;text=&quot;&lt;span style=&quot;background-color: transparent;&quot;&gt;L&#39;application doit être conçue pour offrir une expérience fluide et agréable aux clients du restaurant OSusaké.&lt;/span&gt;&lt;/p&gt;&lt;p style=&quot;margin: 0px ; margin-left: 8px ; text-align: left&quot;&gt;&lt;span&gt;&quot;&lt;/span&gt;&lt;/p&gt;&lt;p style=&quot;margin: 0px ; margin-left: 8px ; text-align: left&quot;&gt;&lt;br&gt;&lt;/p&gt;" style="shape=rect;overflow=fill;html=1;whiteSpace=wrap;align=center;strokeWidth=1;fillColor=#fad9d5;strokeColor=#ae4132;gradientColor=#ffffff;" parent="mcRKk9l3YKuYOQQODkug-1" vertex="1">
          <mxGeometry x="200" y="-60" width="230" height="150" as="geometry" />
        </mxCell>
        <mxCell id="mcRKk9l3YKuYOQQODkug-4" value="&lt;p style=&quot;margin: 0px ; margin-top: 4px ; text-align: center&quot;&gt;&amp;lt;&amp;lt;requirement&amp;gt;&amp;gt;&lt;br&gt;&lt;b&gt;Interface utilisateur intuitive&lt;/b&gt;&lt;/p&gt;&lt;hr&gt;&lt;p&gt;&lt;/p&gt;&lt;p style=&quot;margin: 0px ; margin-left: 8px ; text-align: left&quot;&gt;Id=&quot;1.1.&quot;&lt;br&gt;&lt;/p&gt;&lt;p style=&quot;margin: 0px ; margin-left: 8px ; text-align: left&quot;&gt;text=&quot;L&#39;application doit être simple, claire et accessible, même pour des utilisateurs non expérimentés. Design attractif avec des images et descriptions pour guider les utilisateurs.&lt;span&gt;&quot;&lt;/span&gt;&lt;/p&gt;&lt;p style=&quot;margin: 0px ; margin-left: 8px ; text-align: left&quot;&gt;&lt;br&gt;&lt;/p&gt;" style="shape=rect;overflow=fill;html=1;whiteSpace=wrap;align=center;strokeWidth=1;fillColor=#DF42FF;strokeColor=#ae4132;gradientColor=#ffffff;" parent="mcRKk9l3YKuYOQQODkug-1" vertex="1">
          <mxGeometry x="-330" y="-90" width="200" height="170" as="geometry" />
        </mxCell>
        <mxCell id="mcRKk9l3YKuYOQQODkug-9" value="&lt;p style=&quot;margin: 0px ; margin-top: 4px ; text-align: center&quot;&gt;&amp;lt;&amp;lt;requirement&amp;gt;&amp;gt;&lt;br&gt;&lt;b&gt;Sécurisation des connexions réseau&lt;/b&gt;&lt;/p&gt;&lt;hr&gt;&lt;p&gt;&lt;/p&gt;&lt;p style=&quot;margin: 0px ; margin-left: 8px ; text-align: left&quot;&gt;Id=&quot;2.1.&quot;&lt;br&gt;&lt;/p&gt;&lt;p style=&quot;margin: 0px ; margin-left: 8px ; text-align: left&quot;&gt;text=&quot;Mettre en œuvre des mesures de sécurité pour répondre aux contraintes réglementaires sur la protection des données.&lt;span&gt;&quot;&lt;/span&gt;&lt;/p&gt;&lt;p style=&quot;margin: 0px ; margin-left: 8px ; text-align: left&quot;&gt;&lt;br&gt;&lt;/p&gt;" style="shape=rect;overflow=fill;html=1;whiteSpace=wrap;align=center;strokeWidth=1;fillColor=#FF6863;strokeColor=#ae4132;gradientColor=#ffffff;" parent="mcRKk9l3YKuYOQQODkug-1" vertex="1">
          <mxGeometry x="-380" y="330" width="220" height="150" as="geometry" />
        </mxCell>
        <mxCell id="mcRKk9l3YKuYOQQODkug-13" value="&lt;p style=&quot;margin: 0px ; margin-top: 4px ; text-align: center&quot;&gt;&amp;lt;&amp;lt;requirement&amp;gt;&amp;gt;&lt;br&gt;&lt;b&gt;&amp;nbsp;Assurer la fiabilité et la sécurité&lt;/b&gt;&lt;/p&gt;&lt;hr&gt;&lt;p&gt;&lt;/p&gt;&lt;p style=&quot;margin: 0px ; margin-left: 8px ; text-align: left&quot;&gt;Id=&quot;2.&quot;&lt;br&gt;&lt;/p&gt;&lt;p style=&quot;margin: 0px ; margin-left: 8px ; text-align: left&quot;&gt;text=&quot;Le système doit garantir la sécurité des données utilisateur et être robuste face aux pannes.&lt;span&gt;&quot;&lt;/span&gt;&lt;/p&gt;&lt;p style=&quot;margin: 0px ; margin-left: 8px ; text-align: left&quot;&gt;&lt;br&gt;&lt;/p&gt;" style="shape=rect;overflow=fill;html=1;whiteSpace=wrap;align=center;strokeWidth=1;fillColor=#fad9d5;strokeColor=#ae4132;gradientColor=#ffffff;" parent="mcRKk9l3YKuYOQQODkug-1" vertex="1">
          <mxGeometry x="-70" y="230" width="210" height="150" as="geometry" />
        </mxCell>
        <mxCell id="kWydDfq1rh9on7qYREXL-1" value="&lt;p style=&quot;margin: 0px ; margin-top: 4px ; text-align: center&quot;&gt;&amp;lt;&amp;lt;requirement&amp;gt;&amp;gt;&lt;br&gt;&lt;b&gt;Gestion des permissions&lt;/b&gt;&lt;/p&gt;&lt;hr&gt;&lt;p&gt;&lt;/p&gt;&lt;p style=&quot;margin: 0px ; margin-left: 8px ; text-align: left&quot;&gt;Id=&quot;2.2.&quot;&lt;br&gt;&lt;/p&gt;&lt;p style=&quot;margin: 0px ; margin-left: 8px ; text-align: left&quot;&gt;text=&quot;Les permissions doivent être testées pour garantir un accès sécurisé.&lt;span&gt;&quot;&lt;/span&gt;&lt;/p&gt;&lt;p style=&quot;margin: 0px ; margin-left: 8px ; text-align: left&quot;&gt;&lt;br&gt;&lt;/p&gt;" style="shape=rect;overflow=fill;html=1;whiteSpace=wrap;align=center;strokeWidth=1;fillColor=#3DFF63;strokeColor=#ae4132;gradientColor=#ffffff;" parent="mcRKk9l3YKuYOQQODkug-1" vertex="1">
          <mxGeometry x="-210" y="510" width="170" height="150" as="geometry" />
        </mxCell>
        <mxCell id="kWydDfq1rh9on7qYREXL-2" value="&amp;lt;&amp;lt;refine&amp;gt;&amp;gt;" style="edgeStyle=none;html=1;endArrow=open;endSize=12;dashed=1;verticalAlign=bottom;entryX=0;entryY=0.25;entryDx=0;entryDy=0;exitX=0.996;exitY=0.557;exitDx=0;exitDy=0;exitPerimeter=0;" parent="mcRKk9l3YKuYOQQODkug-1" source="mcRKk9l3YKuYOQQODkug-4" target="mcRKk9l3YKuYOQQODkug-2" edge="1">
          <mxGeometry x="-0.2699" y="-6" width="160" relative="1" as="geometry">
            <mxPoint x="160" y="90" as="sourcePoint" />
            <mxPoint x="170" y="100" as="targetPoint" />
            <mxPoint as="offset" />
          </mxGeometry>
        </mxCell>
        <mxCell id="kWydDfq1rh9on7qYREXL-3" value="&amp;lt;&amp;lt;verify&amp;gt;&amp;gt;" style="edgeStyle=none;html=1;endArrow=open;endSize=12;dashed=1;verticalAlign=bottom;entryX=0.002;entryY=0.699;entryDx=0;entryDy=0;entryPerimeter=0;exitX=1;exitY=0.25;exitDx=0;exitDy=0;" parent="mcRKk9l3YKuYOQQODkug-1" source="mcRKk9l3YKuYOQQODkug-3" target="mcRKk9l3YKuYOQQODkug-2" edge="1">
          <mxGeometry x="-0.2908" y="-7" width="160" relative="1" as="geometry">
            <mxPoint x="220" y="140" as="sourcePoint" />
            <mxPoint x="370.0033333333332" y="100" as="targetPoint" />
            <mxPoint as="offset" />
          </mxGeometry>
        </mxCell>
        <mxCell id="mcRKk9l3YKuYOQQODkug-3" value="&lt;p style=&quot;margin: 0px ; margin-top: 4px ; text-align: center&quot;&gt;&amp;lt;&amp;lt;requirement&amp;gt;&amp;gt;&lt;br&gt;&lt;b&gt;Optimisation des commandes&lt;/b&gt;&lt;/p&gt;&lt;hr&gt;&lt;p&gt;&lt;/p&gt;&lt;p style=&quot;margin: 0px ; margin-left: 8px ; text-align: left&quot;&gt;Id=&quot;1.2.&quot;&lt;br&gt;&lt;/p&gt;&lt;p style=&quot;margin: 0px ; margin-left: 8px ; text-align: left&quot;&gt;text=&quot;Les commandes doivent être transmises automatiquement à la cuisine et au bar pour minimiser les erreurs humaines et accélérer le service.&lt;span&gt;&quot;&lt;/span&gt;&lt;/p&gt;&lt;p style=&quot;margin: 0px ; margin-left: 8px ; text-align: left&quot;&gt;&lt;br&gt;&lt;/p&gt;" style="shape=rect;overflow=fill;html=1;whiteSpace=wrap;align=center;strokeWidth=1;fillColor=#3DFF63;strokeColor=#ae4132;gradientColor=#ffffff;" parent="mcRKk9l3YKuYOQQODkug-1" vertex="1">
          <mxGeometry x="-340" y="120" width="200" height="150" as="geometry" />
        </mxCell>
        <mxCell id="kWydDfq1rh9on7qYREXL-7" value="&amp;lt;&amp;lt;deriveRqt&amp;gt;&amp;gt;" style="edgeStyle=none;html=1;endArrow=open;endSize=12;dashed=1;verticalAlign=bottom;entryX=-0.012;entryY=0.581;entryDx=0;entryDy=0;exitX=1;exitY=0.25;exitDx=0;exitDy=0;entryPerimeter=0;" parent="mcRKk9l3YKuYOQQODkug-1" source="mcRKk9l3YKuYOQQODkug-9" target="mcRKk9l3YKuYOQQODkug-13" edge="1">
          <mxGeometry x="-0.1656" y="-9" width="160" relative="1" as="geometry">
            <mxPoint x="-450.0000000000002" y="690" as="sourcePoint" />
            <mxPoint x="-450.0000000000002" y="610" as="targetPoint" />
            <mxPoint as="offset" />
          </mxGeometry>
        </mxCell>
        <mxCell id="kWydDfq1rh9on7qYREXL-8" value="&amp;lt;&amp;lt;verify&amp;gt;&amp;gt;" style="edgeStyle=none;html=1;endArrow=open;endSize=12;dashed=1;verticalAlign=bottom;exitX=0.5;exitY=0;exitDx=0;exitDy=0;entryX=0.136;entryY=1.001;entryDx=0;entryDy=0;entryPerimeter=0;" parent="mcRKk9l3YKuYOQQODkug-1" source="kWydDfq1rh9on7qYREXL-1" target="mcRKk9l3YKuYOQQODkug-13" edge="1">
          <mxGeometry x="-0.0216" y="-5" width="160" relative="1" as="geometry">
            <mxPoint x="-290" y="690" as="sourcePoint" />
            <mxPoint x="-309.9966666666668" y="610" as="targetPoint" />
            <mxPoint as="offset" />
          </mxGeometry>
        </mxCell>
        <mxCell id="kWydDfq1rh9on7qYREXL-9" style="rounded=0;orthogonalLoop=1;jettySize=auto;html=1;startArrow=circlePlus;startFill=0;endArrow=none;endFill=0;exitX=0;exitY=1;exitDx=0;exitDy=0;entryX=1.003;entryY=0.285;entryDx=0;entryDy=0;entryPerimeter=0;" parent="mcRKk9l3YKuYOQQODkug-1" source="mcRKk9l3YKuYOQQODkug-2" target="mcRKk9l3YKuYOQQODkug-13" edge="1">
          <mxGeometry relative="1" as="geometry">
            <mxPoint x="-437.5" y="100.00000000000091" as="sourcePoint" />
            <mxPoint x="-300" y="210" as="targetPoint" />
          </mxGeometry>
        </mxCell>
        <mxCell id="kWydDfq1rh9on7qYREXL-10" value="&lt;p style=&quot;margin: 0px ; margin-top: 4px ; text-align: center&quot;&gt;&amp;lt;&amp;lt;requirement&amp;gt;&amp;gt;&lt;br&gt;&lt;b&gt;&amp;nbsp;Conception de l&#39;infrastructure réseau&lt;/b&gt;&lt;/p&gt;&lt;hr&gt;&lt;p&gt;&lt;/p&gt;&lt;p style=&quot;margin: 0px ; margin-left: 8px ; text-align: left&quot;&gt;Id=&quot;3&quot;&lt;br&gt;&lt;/p&gt;&lt;p style=&quot;margin: 0px ; margin-left: 8px ; text-align: left&quot;&gt;text=&quot;Fournir une infrastructure réseau fiable qui assure la connectivité entre les différents appareils.&lt;span&gt;&quot;&lt;/span&gt;&lt;/p&gt;&lt;p style=&quot;margin: 0px ; margin-left: 8px ; text-align: left&quot;&gt;&lt;br&gt;&lt;/p&gt;" style="shape=rect;overflow=fill;html=1;whiteSpace=wrap;align=center;strokeWidth=1;fillColor=#FF6863;strokeColor=#b85450;gradientColor=#FFFFFF;gradientDirection=south;" parent="mcRKk9l3YKuYOQQODkug-1" vertex="1">
          <mxGeometry x="50" y="550" width="230" height="150" as="geometry" />
        </mxCell>
        <mxCell id="kWydDfq1rh9on7qYREXL-11" value="&lt;p style=&quot;margin: 0px ; margin-top: 4px ; text-align: center&quot;&gt;&amp;lt;&amp;lt;requirement&amp;gt;&amp;gt;&lt;br&gt;&lt;b&gt;&amp;nbsp;&lt;/b&gt;&lt;span style=&quot;background-color: transparent;&quot;&gt;&lt;b&gt;Serveur Web et Base de Données&lt;/b&gt;&lt;/span&gt;&lt;/p&gt;&lt;hr&gt;&lt;p&gt;&lt;/p&gt;&lt;p style=&quot;margin: 0px ; margin-left: 8px ; text-align: left&quot;&gt;Id=&quot;4&quot;&lt;br&gt;&lt;/p&gt;&lt;p style=&quot;margin: 0px ; margin-left: 8px ; text-align: left&quot;&gt;text=&quot;Déployer un serveur web et une base de données robuste pour héberger l&#39;application et gérer les données.&lt;span&gt;&quot;&lt;/span&gt;&lt;/p&gt;&lt;p style=&quot;margin: 0px ; margin-left: 8px ; text-align: left&quot;&gt;&lt;br&gt;&lt;/p&gt;" style="shape=rect;overflow=fill;html=1;whiteSpace=wrap;align=center;strokeWidth=1;fillColor=#FF6863;strokeColor=#ae4132;gradientColor=#ffffff;" parent="mcRKk9l3YKuYOQQODkug-1" vertex="1">
          <mxGeometry x="370" y="410" width="230" height="150" as="geometry" />
        </mxCell>
        <mxCell id="kWydDfq1rh9on7qYREXL-12" value="&lt;p style=&quot;margin: 0px ; margin-top: 4px ; text-align: center&quot;&gt;&amp;lt;&amp;lt;requirement&amp;gt;&amp;gt;&lt;br&gt;&lt;b&gt;&amp;nbsp;&lt;/b&gt;&lt;span style=&quot;background-color: transparent;&quot;&gt;&lt;b&gt;Développement de l&#39;application&lt;/b&gt;&lt;/span&gt;&lt;/p&gt;&lt;hr&gt;&lt;p&gt;&lt;/p&gt;&lt;p style=&quot;margin: 0px ; margin-left: 8px ; text-align: left&quot;&gt;Id=&quot;5&quot;&lt;br&gt;&lt;/p&gt;&lt;p style=&quot;margin: 0px ; margin-left: 8px ; text-align: left&quot;&gt;text=&quot;Concevoir et implémenter une application frontend et backend adaptée aux besoins du restaurant.&lt;span&gt;&quot;&lt;/span&gt;&lt;/p&gt;&lt;p style=&quot;margin: 0px ; margin-left: 8px ; text-align: left&quot;&gt;&lt;br&gt;&lt;/p&gt;" style="shape=rect;overflow=fill;html=1;whiteSpace=wrap;align=center;strokeWidth=1;fillColor=#fad9d5;strokeColor=#ae4132;gradientColor=#ffffff;" parent="mcRKk9l3YKuYOQQODkug-1" vertex="1">
          <mxGeometry x="780" y="500" width="230" height="150" as="geometry" />
        </mxCell>
        <mxCell id="kWydDfq1rh9on7qYREXL-13" value="&lt;p style=&quot;margin: 0px ; margin-top: 4px ; text-align: center&quot;&gt;&amp;lt;&amp;lt;requirement&amp;gt;&amp;gt;&lt;br&gt;&lt;b&gt;&amp;nbsp;&lt;/b&gt;&lt;span style=&quot;background-color: transparent;&quot;&gt;&lt;b&gt;Respect des contraintes financières&lt;/b&gt;&lt;/span&gt;&lt;/p&gt;&lt;hr&gt;&lt;p&gt;&lt;/p&gt;&lt;p style=&quot;margin: 0px ; margin-left: 8px ; text-align: left&quot;&gt;Id=&quot;6&quot;&lt;br&gt;&lt;/p&gt;&lt;p style=&quot;margin: 0px ; margin-left: 8px ; text-align: left&quot;&gt;text=&quot;Le projet doit être réalisé dans le budget limité à 200 €.&lt;span&gt;&quot;&lt;/span&gt;&lt;/p&gt;&lt;p style=&quot;margin: 0px ; margin-left: 8px ; text-align: left&quot;&gt;&lt;br&gt;&lt;/p&gt;" style="shape=rect;overflow=fill;html=1;whiteSpace=wrap;align=center;strokeWidth=1;fillColor=#fad9d5;strokeColor=#ae4132;gradientColor=#ffffff;" parent="mcRKk9l3YKuYOQQODkug-1" vertex="1">
          <mxGeometry x="810" y="290" width="230" height="150" as="geometry" />
        </mxCell>
        <mxCell id="kWydDfq1rh9on7qYREXL-15" value="&lt;p style=&quot;margin: 0px ; margin-top: 4px ; text-align: center&quot;&gt;&amp;lt;&amp;lt;requirement&amp;gt;&amp;gt;&lt;br&gt;&lt;b&gt;&amp;nbsp;&lt;/b&gt;&lt;span style=&quot;background-color: transparent;&quot;&gt;&lt;b&gt;Tests et validations&lt;/b&gt;&lt;/span&gt;&lt;/p&gt;&lt;hr&gt;&lt;p&gt;&lt;/p&gt;&lt;p style=&quot;margin: 0px ; margin-left: 8px ; text-align: left&quot;&gt;Id=&quot;8&quot;&lt;br&gt;&lt;/p&gt;&lt;p style=&quot;margin: 0px ; margin-left: 8px ; text-align: left&quot;&gt;text=&quot;&amp;nbsp;Garantir le bon fonctionnement du système avec des tests rigoureux.&lt;span&gt;&quot;&lt;/span&gt;&lt;/p&gt;&lt;p style=&quot;margin: 0px ; margin-left: 8px ; text-align: left&quot;&gt;&lt;br&gt;&lt;/p&gt;" style="shape=rect;overflow=fill;html=1;whiteSpace=wrap;align=center;strokeWidth=1;fillColor=#FF6863;strokeColor=#ae4132;gradientColor=#ffffff;" parent="mcRKk9l3YKuYOQQODkug-1" vertex="1">
          <mxGeometry x="590" y="-290" width="230" height="150" as="geometry" />
        </mxCell>
        <mxCell id="kWydDfq1rh9on7qYREXL-20" value="&lt;p style=&quot;margin: 0px ; margin-top: 4px ; text-align: center&quot;&gt;&amp;lt;&amp;lt;requirement&amp;gt;&amp;gt;&lt;br&gt;&lt;b&gt;Configuration du routeur&lt;/b&gt;&lt;/p&gt;&lt;hr&gt;&lt;p&gt;&lt;/p&gt;&lt;p style=&quot;margin: 0px ; margin-left: 8px ; text-align: left&quot;&gt;Id=&quot;3.1.&quot;&lt;br&gt;&lt;/p&gt;&lt;p style=&quot;margin: 0px ; margin-left: 8px ; text-align: left&quot;&gt;text=&quot;Configurer le réseau en définissant la mise en place du routeur pour assurer une interconnexion optimale des appareils.&lt;span&gt;&quot;&lt;/span&gt;&lt;/p&gt;&lt;p style=&quot;margin: 0px ; margin-left: 8px ; text-align: left&quot;&gt;&lt;br&gt;&lt;/p&gt;" style="shape=rect;overflow=fill;html=1;whiteSpace=wrap;align=center;strokeWidth=1;fillColor=#FF6863;strokeColor=#b85450;gradientColor=#FFFFFF;" parent="mcRKk9l3YKuYOQQODkug-1" vertex="1">
          <mxGeometry x="-190" y="750" width="220" height="150" as="geometry" />
        </mxCell>
        <mxCell id="kWydDfq1rh9on7qYREXL-21" value="&lt;p style=&quot;margin: 0px ; margin-top: 4px ; text-align: center&quot;&gt;&amp;lt;&amp;lt;requirement&amp;gt;&amp;gt;&lt;br&gt;&lt;b&gt;Point d&#39;accès Wi-Fi&lt;/b&gt;&lt;/p&gt;&lt;hr&gt;&lt;p&gt;&lt;/p&gt;&lt;p style=&quot;margin: 0px ; margin-left: 8px ; text-align: left&quot;&gt;Id=&quot;3.2.&quot;&lt;br&gt;&lt;/p&gt;&lt;p style=&quot;margin: 0px ; margin-left: 8px ; text-align: left&quot;&gt;text=&quot;La connectivité Wi-Fi doit être validée par des tests pratiques.&lt;span&gt;&quot;&lt;/span&gt;&lt;/p&gt;&lt;p style=&quot;margin: 0px ; margin-left: 8px ; text-align: left&quot;&gt;&lt;br&gt;&lt;/p&gt;" style="shape=rect;overflow=fill;html=1;whiteSpace=wrap;align=center;strokeWidth=1;fillColor=#FF6863;strokeColor=#b85450;gradientColor=#FFFFFF;" parent="mcRKk9l3YKuYOQQODkug-1" vertex="1">
          <mxGeometry x="80" y="750" width="170" height="150" as="geometry" />
        </mxCell>
        <mxCell id="kWydDfq1rh9on7qYREXL-22" value="&lt;p style=&quot;margin: 0px ; margin-top: 4px ; text-align: center&quot;&gt;&amp;lt;&amp;lt;requirement&amp;gt;&amp;gt;&lt;br&gt;&lt;b&gt;Installation d&#39;un serveur WAMP&lt;/b&gt;&lt;/p&gt;&lt;hr&gt;&lt;p&gt;&lt;/p&gt;&lt;p style=&quot;margin: 0px ; margin-left: 8px ; text-align: left&quot;&gt;Id=&quot;4.1.&quot;&lt;br&gt;&lt;/p&gt;&lt;p style=&quot;text-align: center; margin: 0px 0px 0px 8px;&quot;&gt;text=&quot;&lt;span style=&quot;background-color: transparent; text-align: center;&quot;&gt;Spécifier les étapes nécessaires pour installer et configurer un serveur WAMP destiné à héberger l&#39;application.&quot;&lt;/span&gt;&lt;/p&gt;&lt;p style=&quot;margin: 0px ; margin-left: 8px ; text-align: left&quot;&gt;&lt;br&gt;&lt;/p&gt;" style="shape=rect;overflow=fill;html=1;whiteSpace=wrap;align=center;strokeWidth=1;fillColor=#FF6863;strokeColor=#ae4132;gradientColor=#ffffff;" parent="mcRKk9l3YKuYOQQODkug-1" vertex="1">
          <mxGeometry x="340" y="690" width="220" height="150" as="geometry" />
        </mxCell>
        <mxCell id="kWydDfq1rh9on7qYREXL-23" value="&lt;p style=&quot;margin: 0px ; margin-top: 4px ; text-align: center&quot;&gt;&amp;lt;&amp;lt;requirement&amp;gt;&amp;gt;&lt;br&gt;&lt;b&gt;Base de données sécurisée&lt;/b&gt;&lt;/p&gt;&lt;hr&gt;&lt;p&gt;&lt;/p&gt;&lt;p style=&quot;margin: 0px ; margin-left: 8px ; text-align: left&quot;&gt;Id=&quot;4.2.&quot;&lt;br&gt;&lt;/p&gt;&lt;p style=&quot;margin: 0px ; margin-left: 8px ; text-align: left&quot;&gt;text=&quot;La sécurité de la base de données doit être testée pour protéger les informations sensibles.&lt;span&gt;&quot;&lt;/span&gt;&lt;/p&gt;&lt;p style=&quot;margin: 0px ; margin-left: 8px ; text-align: left&quot;&gt;&lt;br&gt;&lt;/p&gt;" style="shape=rect;overflow=fill;html=1;whiteSpace=wrap;align=center;strokeWidth=1;fillColor=#FF6863;strokeColor=#ae4132;gradientColor=#ffffff;" parent="mcRKk9l3YKuYOQQODkug-1" vertex="1">
          <mxGeometry x="610" y="690" width="170" height="150" as="geometry" />
        </mxCell>
        <mxCell id="kWydDfq1rh9on7qYREXL-24" value="&lt;p style=&quot;margin: 0px ; margin-top: 4px ; text-align: center&quot;&gt;&amp;lt;&amp;lt;requirement&amp;gt;&amp;gt;&lt;br&gt;&lt;b&gt;Développement Frontend&lt;/b&gt;&lt;/p&gt;&lt;hr&gt;&lt;p&gt;&lt;/p&gt;&lt;p style=&quot;margin: 0px ; margin-left: 8px ; text-align: left&quot;&gt;Id=&quot;5.1.&quot;&lt;br&gt;&lt;/p&gt;&lt;p style=&quot;margin: 0px ; margin-left: 8px ; text-align: left&quot;&gt;text=&quot;Les tests utilisateur vérifieront l&#39;ergonomie et l&#39;affichage de l&#39;interface.&lt;span&gt;&quot;&lt;/span&gt;&lt;/p&gt;&lt;p style=&quot;margin: 0px ; margin-left: 8px ; text-align: left&quot;&gt;&lt;br&gt;&lt;/p&gt;" style="shape=rect;overflow=fill;html=1;whiteSpace=wrap;align=center;strokeWidth=1;fillColor=#DF42FF;strokeColor=#ae4132;gradientColor=#ffffff;" parent="mcRKk9l3YKuYOQQODkug-1" vertex="1">
          <mxGeometry x="820" y="770" width="220" height="150" as="geometry" />
        </mxCell>
        <mxCell id="kWydDfq1rh9on7qYREXL-25" value="&lt;p style=&quot;margin: 0px ; margin-top: 4px ; text-align: center&quot;&gt;&amp;lt;&amp;lt;requirement&amp;gt;&amp;gt;&lt;br&gt;&lt;b&gt;Développement Backend&lt;/b&gt;&lt;/p&gt;&lt;hr&gt;&lt;p&gt;&lt;/p&gt;&lt;p style=&quot;margin: 0px ; margin-left: 8px ; text-align: left&quot;&gt;Id=&quot;5.2.&quot;&lt;br&gt;&lt;/p&gt;&lt;p style=&quot;margin: 0px ; margin-left: 8px ; text-align: left&quot;&gt;text=&quot;Concevoir et développer les fonctionnalités backend, notamment pour gérer les commandes et appliquer les règles métier.&lt;span&gt;&quot;&lt;/span&gt;&lt;/p&gt;&lt;p style=&quot;margin: 0px ; margin-left: 8px ; text-align: left&quot;&gt;&lt;br&gt;&lt;/p&gt;" style="shape=rect;overflow=fill;html=1;whiteSpace=wrap;align=center;strokeWidth=1;fillColor=#3DFF63;strokeColor=#ae4132;gradientColor=#ffffff;" parent="mcRKk9l3YKuYOQQODkug-1" vertex="1">
          <mxGeometry x="1060" y="740" width="170" height="150" as="geometry" />
        </mxCell>
        <mxCell id="kWydDfq1rh9on7qYREXL-26" value="&lt;p style=&quot;margin: 0px ; margin-top: 4px ; text-align: center&quot;&gt;&amp;lt;&amp;lt;requirement&amp;gt;&amp;gt;&lt;br&gt;&lt;span style=&quot;font-size: 12px;&quot;&gt;&lt;b&gt;Tests de performance&lt;/b&gt;&lt;/span&gt;&lt;/p&gt;&lt;hr&gt;&lt;p&gt;&lt;/p&gt;&lt;p style=&quot;margin: 0px ; margin-left: 8px ; text-align: left&quot;&gt;Id=&quot;8.1.&quot;&lt;br&gt;&lt;/p&gt;&lt;p style=&quot;margin: 0px ; margin-left: 8px ; text-align: left&quot;&gt;text=&quot;Les performances doivent être validées par des simulations de charge.&lt;span&gt;&quot;&lt;/span&gt;&lt;/p&gt;&lt;p style=&quot;margin: 0px ; margin-left: 8px ; text-align: left&quot;&gt;&lt;br&gt;&lt;/p&gt;" style="shape=rect;overflow=fill;html=1;whiteSpace=wrap;align=center;strokeWidth=1;fillColor=#FF6863;strokeColor=#ae4132;gradientColor=#ffffff;" parent="mcRKk9l3YKuYOQQODkug-1" vertex="1">
          <mxGeometry x="620" y="-560" width="220" height="150" as="geometry" />
        </mxCell>
        <mxCell id="kWydDfq1rh9on7qYREXL-27" value="&lt;p style=&quot;margin: 0px ; margin-top: 4px ; text-align: center&quot;&gt;&amp;lt;&amp;lt;requirement&amp;gt;&amp;gt;&lt;br&gt;&lt;span style=&quot;font-size: 12px;&quot;&gt;&lt;b&gt;Tests de sécurité&lt;/b&gt;&lt;/span&gt;&lt;/p&gt;&lt;hr&gt;&lt;p&gt;&lt;/p&gt;&lt;p style=&quot;margin: 0px ; margin-left: 8px ; text-align: left&quot;&gt;Id=&quot;8.2.&quot;&lt;br&gt;&lt;/p&gt;&lt;p style=&quot;margin: 0px ; margin-left: 8px ; text-align: left&quot;&gt;text=&quot;Les vulnérabilités doivent être identifiées via des tests d&#39;intrusion.&lt;span&gt;&quot;&lt;/span&gt;&lt;/p&gt;&lt;p style=&quot;margin: 0px ; margin-left: 8px ; text-align: left&quot;&gt;&lt;br&gt;&lt;/p&gt;" style="shape=rect;overflow=fill;html=1;whiteSpace=wrap;align=center;strokeWidth=1;fillColor=#FF6863;strokeColor=#ae4132;gradientColor=#ffffff;" parent="mcRKk9l3YKuYOQQODkug-1" vertex="1">
          <mxGeometry x="870" y="-500" width="170" height="150" as="geometry" />
        </mxCell>
        <mxCell id="kWydDfq1rh9on7qYREXL-28" value="&lt;p style=&quot;margin: 0px ; margin-top: 4px ; text-align: center&quot;&gt;&amp;lt;&amp;lt;requirement&amp;gt;&amp;gt;&lt;br&gt;&lt;span style=&quot;font-size: 12px;&quot;&gt;&lt;b&gt;Tests de convivialité&lt;/b&gt;&lt;/span&gt;&lt;/p&gt;&lt;hr&gt;&lt;p&gt;&lt;/p&gt;&lt;p style=&quot;margin: 0px ; margin-left: 8px ; text-align: left&quot;&gt;Id=&quot;8.3.&quot;&lt;br&gt;&lt;/p&gt;&lt;p style=&quot;margin: 0px ; margin-left: 8px ; text-align: left&quot;&gt;text=&quot;Réaliser des tests d&#39;utilisabilité pour obtenir des retours d&#39;expérience et ajuster l&#39;interface en fonction si nécessaire.&lt;span&gt;&quot;&lt;/span&gt;&lt;/p&gt;&lt;p style=&quot;margin: 0px ; margin-left: 8px ; text-align: left&quot;&gt;&lt;br&gt;&lt;/p&gt;" style="shape=rect;overflow=fill;html=1;whiteSpace=wrap;align=center;strokeWidth=1;fillColor=#DF42FF;strokeColor=#ae4132;gradientColor=#ffffff;" parent="mcRKk9l3YKuYOQQODkug-1" vertex="1">
          <mxGeometry x="940" y="-320" width="220" height="150" as="geometry" />
        </mxCell>
        <mxCell id="kWydDfq1rh9on7qYREXL-32" style="rounded=0;orthogonalLoop=1;jettySize=auto;html=1;startArrow=circlePlus;startFill=0;endArrow=none;endFill=0;exitX=0.25;exitY=1;exitDx=0;exitDy=0;entryX=0.5;entryY=0;entryDx=0;entryDy=0;" parent="mcRKk9l3YKuYOQQODkug-1" source="mcRKk9l3YKuYOQQODkug-2" target="kWydDfq1rh9on7qYREXL-10" edge="1">
          <mxGeometry relative="1" as="geometry">
            <mxPoint x="265" y="100" as="sourcePoint" />
            <mxPoint x="-485" y="180" as="targetPoint" />
          </mxGeometry>
        </mxCell>
        <mxCell id="kWydDfq1rh9on7qYREXL-33" style="rounded=0;orthogonalLoop=1;jettySize=auto;html=1;startArrow=circlePlus;startFill=0;endArrow=none;endFill=0;exitX=0.5;exitY=1;exitDx=0;exitDy=0;entryX=0.286;entryY=-0.009;entryDx=0;entryDy=0;entryPerimeter=0;" parent="mcRKk9l3YKuYOQQODkug-1" source="mcRKk9l3YKuYOQQODkug-2" target="kWydDfq1rh9on7qYREXL-11" edge="1">
          <mxGeometry relative="1" as="geometry">
            <mxPoint x="323" y="100" as="sourcePoint" />
            <mxPoint x="15" y="180" as="targetPoint" />
          </mxGeometry>
        </mxCell>
        <mxCell id="kWydDfq1rh9on7qYREXL-34" style="rounded=0;orthogonalLoop=1;jettySize=auto;html=1;startArrow=circlePlus;startFill=0;endArrow=none;endFill=0;exitX=0.75;exitY=1;exitDx=0;exitDy=0;entryX=0.25;entryY=0;entryDx=0;entryDy=0;" parent="mcRKk9l3YKuYOQQODkug-1" source="mcRKk9l3YKuYOQQODkug-2" target="kWydDfq1rh9on7qYREXL-12" edge="1">
          <mxGeometry relative="1" as="geometry">
            <mxPoint x="840" y="60" as="sourcePoint" />
            <mxPoint x="878" y="140" as="targetPoint" />
          </mxGeometry>
        </mxCell>
        <mxCell id="kWydDfq1rh9on7qYREXL-35" style="rounded=0;orthogonalLoop=1;jettySize=auto;html=1;startArrow=circlePlus;startFill=0;endArrow=none;endFill=0;exitX=1;exitY=0.75;exitDx=0;exitDy=0;entryX=0;entryY=0.25;entryDx=0;entryDy=0;" parent="mcRKk9l3YKuYOQQODkug-1" source="mcRKk9l3YKuYOQQODkug-2" target="kWydDfq1rh9on7qYREXL-13" edge="1">
          <mxGeometry relative="1" as="geometry">
            <mxPoint x="550" y="40" as="sourcePoint" />
            <mxPoint x="972" y="120" as="targetPoint" />
          </mxGeometry>
        </mxCell>
        <mxCell id="kWydDfq1rh9on7qYREXL-37" style="rounded=0;orthogonalLoop=1;jettySize=auto;html=1;startArrow=circlePlus;startFill=0;endArrow=none;endFill=0;exitX=1;exitY=0.5;exitDx=0;exitDy=0;entryX=0;entryY=0.25;entryDx=0;entryDy=0;" parent="mcRKk9l3YKuYOQQODkug-1" source="mcRKk9l3YKuYOQQODkug-2" target="kWydDfq1rh9on7qYREXL-14" edge="1">
          <mxGeometry relative="1" as="geometry">
            <mxPoint x="570" y="-27" as="sourcePoint" />
            <mxPoint x="1350" y="90" as="targetPoint" />
          </mxGeometry>
        </mxCell>
        <mxCell id="kWydDfq1rh9on7qYREXL-38" style="rounded=0;orthogonalLoop=1;jettySize=auto;html=1;startArrow=circlePlus;startFill=0;endArrow=none;endFill=0;entryX=0;entryY=0.5;entryDx=0;entryDy=0;exitX=1;exitY=0.25;exitDx=0;exitDy=0;" parent="mcRKk9l3YKuYOQQODkug-1" source="mcRKk9l3YKuYOQQODkug-2" target="kWydDfq1rh9on7qYREXL-15" edge="1">
          <mxGeometry relative="1" as="geometry">
            <mxPoint x="1000" y="-20" as="sourcePoint" />
            <mxPoint x="2018" y="145" as="targetPoint" />
          </mxGeometry>
        </mxCell>
        <mxCell id="NJ4r-btPFasgyIgzd2Xu-0" value="&amp;lt;&amp;lt;refine&amp;gt;&amp;gt;" style="edgeStyle=none;html=1;endArrow=open;endSize=12;dashed=1;verticalAlign=bottom;entryX=0.001;entryY=0.846;entryDx=0;entryDy=0;exitX=0.811;exitY=-0.001;exitDx=0;exitDy=0;exitPerimeter=0;entryPerimeter=0;" parent="mcRKk9l3YKuYOQQODkug-1" source="kWydDfq1rh9on7qYREXL-20" target="kWydDfq1rh9on7qYREXL-10" edge="1">
          <mxGeometry x="-0.1642" y="-11" width="160" relative="1" as="geometry">
            <mxPoint x="-150" y="910" as="sourcePoint" />
            <mxPoint x="-40" y="880" as="targetPoint" />
            <mxPoint as="offset" />
          </mxGeometry>
        </mxCell>
        <mxCell id="NJ4r-btPFasgyIgzd2Xu-1" value="&amp;lt;&amp;lt;verify&amp;gt;&amp;gt;" style="edgeStyle=none;html=1;endArrow=open;endSize=12;dashed=1;verticalAlign=bottom;entryX=0.5;entryY=1;entryDx=0;entryDy=0;exitX=0.5;exitY=0;exitDx=0;exitDy=0;" parent="mcRKk9l3YKuYOQQODkug-1" source="kWydDfq1rh9on7qYREXL-21" target="kWydDfq1rh9on7qYREXL-10" edge="1">
          <mxGeometry x="-0.2308" width="160" relative="1" as="geometry">
            <mxPoint x="90" y="950" as="sourcePoint" />
            <mxPoint x="70.00333333333322" y="870" as="targetPoint" />
            <mxPoint as="offset" />
          </mxGeometry>
        </mxCell>
        <mxCell id="NJ4r-btPFasgyIgzd2Xu-2" value="&amp;lt;&amp;lt;refine&amp;gt;&amp;gt;" style="edgeStyle=none;html=1;endArrow=open;endSize=12;dashed=1;verticalAlign=bottom;entryX=0.335;entryY=1.004;entryDx=0;entryDy=0;exitX=0.5;exitY=0;exitDx=0;exitDy=0;entryPerimeter=0;" parent="mcRKk9l3YKuYOQQODkug-1" source="kWydDfq1rh9on7qYREXL-22" target="kWydDfq1rh9on7qYREXL-11" edge="1">
          <mxGeometry x="-0.0721" y="2" width="160" relative="1" as="geometry">
            <mxPoint x="445" y="930" as="sourcePoint" />
            <mxPoint x="445" y="860" as="targetPoint" />
            <mxPoint as="offset" />
          </mxGeometry>
        </mxCell>
        <mxCell id="NJ4r-btPFasgyIgzd2Xu-3" value="&amp;lt;&amp;lt;verify&amp;gt;&amp;gt;" style="edgeStyle=none;html=1;endArrow=open;endSize=12;dashed=1;verticalAlign=bottom;entryX=0.891;entryY=1.016;entryDx=0;entryDy=0;exitX=0.5;exitY=0;exitDx=0;exitDy=0;entryPerimeter=0;" parent="mcRKk9l3YKuYOQQODkug-1" source="kWydDfq1rh9on7qYREXL-23" target="kWydDfq1rh9on7qYREXL-11" edge="1">
          <mxGeometry x="-0.2323" y="-1" width="160" relative="1" as="geometry">
            <mxPoint x="625" y="930" as="sourcePoint" />
            <mxPoint x="605.0033333333332" y="850" as="targetPoint" />
            <mxPoint x="1" as="offset" />
          </mxGeometry>
        </mxCell>
        <mxCell id="NJ4r-btPFasgyIgzd2Xu-4" value="&lt;p style=&quot;margin: 0px ; margin-top: 4px ; text-align: center&quot;&gt;&amp;lt;&amp;lt;requirement&amp;gt;&amp;gt;&lt;br&gt;&lt;b&gt;Dashboard d&#39;administration&lt;/b&gt;&lt;/p&gt;&lt;hr&gt;&lt;p&gt;&lt;/p&gt;&lt;p style=&quot;margin: 0px ; margin-left: 8px ; text-align: left&quot;&gt;Id=&quot;5.3.&quot;&lt;br&gt;&lt;/p&gt;&lt;p style=&quot;margin: 0px ; margin-left: 8px ; text-align: left&quot;&gt;text=&quot;Le tableau de bord doit être testé pour vérifier qu&#39;il permet les modifications prévues.&lt;span&gt;&quot;&lt;/span&gt;&lt;/p&gt;&lt;p style=&quot;margin: 0px ; margin-left: 8px ; text-align: left&quot;&gt;&lt;br&gt;&lt;/p&gt;" style="shape=rect;overflow=fill;html=1;whiteSpace=wrap;align=center;strokeWidth=1;fillColor=#FF6863;strokeColor=#ae4132;gradientColor=#ffffff;" parent="mcRKk9l3YKuYOQQODkug-1" vertex="1">
          <mxGeometry x="1140" y="540" width="170" height="150" as="geometry" />
        </mxCell>
        <mxCell id="NJ4r-btPFasgyIgzd2Xu-5" value="&amp;lt;&amp;lt;verify&amp;gt;&amp;gt;" style="edgeStyle=none;html=1;endArrow=open;endSize=12;dashed=1;verticalAlign=bottom;entryX=0.25;entryY=1;entryDx=0;entryDy=0;exitX=0.5;exitY=0;exitDx=0;exitDy=0;" parent="mcRKk9l3YKuYOQQODkug-1" source="kWydDfq1rh9on7qYREXL-24" target="kWydDfq1rh9on7qYREXL-12" edge="1">
          <mxGeometry x="-0.1549" y="1" width="160" relative="1" as="geometry">
            <mxPoint x="970" y="890" as="sourcePoint" />
            <mxPoint x="950.0033333333331" y="810" as="targetPoint" />
            <mxPoint as="offset" />
          </mxGeometry>
        </mxCell>
        <mxCell id="NJ4r-btPFasgyIgzd2Xu-6" value="&amp;lt;&amp;lt;refine&amp;gt;&amp;gt;" style="edgeStyle=none;html=1;endArrow=open;endSize=12;dashed=1;verticalAlign=bottom;entryX=0.5;entryY=1;entryDx=0;entryDy=0;exitX=0.5;exitY=0;exitDx=0;exitDy=0;" parent="mcRKk9l3YKuYOQQODkug-1" source="kWydDfq1rh9on7qYREXL-25" target="kWydDfq1rh9on7qYREXL-12" edge="1">
          <mxGeometry x="-0.1544" y="-2" width="160" relative="1" as="geometry">
            <mxPoint x="1190" y="910" as="sourcePoint" />
            <mxPoint x="1190" y="840" as="targetPoint" />
            <mxPoint as="offset" />
          </mxGeometry>
        </mxCell>
        <mxCell id="NJ4r-btPFasgyIgzd2Xu-7" value="&amp;lt;&amp;lt;verify&amp;gt;&amp;gt;" style="edgeStyle=none;html=1;endArrow=open;endSize=12;dashed=1;verticalAlign=bottom;exitX=0;exitY=0.25;exitDx=0;exitDy=0;" parent="mcRKk9l3YKuYOQQODkug-1" source="NJ4r-btPFasgyIgzd2Xu-4" target="kWydDfq1rh9on7qYREXL-12" edge="1">
          <mxGeometry x="-0.077" y="1" width="160" relative="1" as="geometry">
            <mxPoint x="1333" y="760" as="sourcePoint" />
            <mxPoint x="1313.003333333333" y="680" as="targetPoint" />
            <mxPoint as="offset" />
          </mxGeometry>
        </mxCell>
        <mxCell id="NJ4r-btPFasgyIgzd2Xu-10" value="&amp;lt;&amp;lt;verify&amp;gt;&amp;gt;" style="edgeStyle=none;html=1;endArrow=open;endSize=12;dashed=1;verticalAlign=bottom;entryX=0.921;entryY=0.005;entryDx=0;entryDy=0;exitX=0;exitY=0.5;exitDx=0;exitDy=0;entryPerimeter=0;" parent="mcRKk9l3YKuYOQQODkug-1" source="kWydDfq1rh9on7qYREXL-27" target="kWydDfq1rh9on7qYREXL-15" edge="1">
          <mxGeometry x="0.0354" y="3" width="160" relative="1" as="geometry">
            <mxPoint x="1440" y="50" as="sourcePoint" />
            <mxPoint x="1460.003333333333" y="-10" as="targetPoint" />
            <mxPoint as="offset" />
          </mxGeometry>
        </mxCell>
        <mxCell id="NJ4r-btPFasgyIgzd2Xu-11" value="&amp;lt;&amp;lt;verify&amp;gt;&amp;gt;" style="edgeStyle=none;html=1;endArrow=open;endSize=12;dashed=1;verticalAlign=bottom;entryX=0.3;entryY=-0.019;entryDx=0;entryDy=0;exitX=0.152;exitY=1.004;exitDx=0;exitDy=0;exitPerimeter=0;entryPerimeter=0;" parent="mcRKk9l3YKuYOQQODkug-1" source="kWydDfq1rh9on7qYREXL-26" target="kWydDfq1rh9on7qYREXL-15" edge="1">
          <mxGeometry x="-0.3748" y="-1" width="160" relative="1" as="geometry">
            <mxPoint x="1250" y="90" as="sourcePoint" />
            <mxPoint x="1230.003333333333" y="10" as="targetPoint" />
            <mxPoint as="offset" />
          </mxGeometry>
        </mxCell>
        <mxCell id="NJ4r-btPFasgyIgzd2Xu-12" value="&amp;lt;&amp;lt;refine&amp;gt;&amp;gt;" style="edgeStyle=none;html=1;endArrow=open;endSize=12;dashed=1;verticalAlign=bottom;exitX=0;exitY=0.5;exitDx=0;exitDy=0;entryX=1.011;entryY=0.286;entryDx=0;entryDy=0;entryPerimeter=0;" parent="mcRKk9l3YKuYOQQODkug-1" source="kWydDfq1rh9on7qYREXL-28" target="kWydDfq1rh9on7qYREXL-15" edge="1">
          <mxGeometry x="-0.0006" y="1" width="160" relative="1" as="geometry">
            <mxPoint x="1640" y="20" as="sourcePoint" />
            <mxPoint x="1640" y="-50" as="targetPoint" />
            <mxPoint as="offset" />
          </mxGeometry>
        </mxCell>
        <mxCell id="kWydDfq1rh9on7qYREXL-14" value="&lt;p style=&quot;margin: 0px ; margin-top: 4px ; text-align: center&quot;&gt;&amp;lt;&amp;lt;requirement&amp;gt;&amp;gt;&lt;br&gt;&lt;b&gt;&amp;nbsp;&lt;/b&gt;&lt;span style=&quot;background-color: transparent;&quot;&gt;&lt;b&gt;Respect des contraintes de qualité&lt;/b&gt;&lt;/span&gt;&lt;/p&gt;&lt;hr&gt;&lt;p&gt;&lt;/p&gt;&lt;p style=&quot;margin: 0px ; margin-left: 8px ; text-align: left&quot;&gt;Id=&quot;7&quot;&lt;br&gt;&lt;/p&gt;&lt;p style=&quot;margin: 0px ; margin-left: 8px ; text-align: left&quot;&gt;text=&quot;La documentation du projet doit être complète et conforme aux normes.&lt;span&gt;&quot;&lt;/span&gt;&lt;/p&gt;&lt;p style=&quot;margin: 0px ; margin-left: 8px ; text-align: left&quot;&gt;&lt;br&gt;&lt;/p&gt;" style="shape=rect;overflow=fill;html=1;whiteSpace=wrap;align=center;strokeWidth=1;fillColor=#fad9d5;strokeColor=#ae4132;gradientColor=#ffffff;" parent="mcRKk9l3YKuYOQQODkug-1" vertex="1">
          <mxGeometry x="810" y="80" width="230" height="150" as="geometry" />
        </mxCell>
        <mxCell id="NJ4r-btPFasgyIgzd2Xu-22" value="&lt;p style=&quot;margin: 0px ; margin-top: 4px ; text-align: center&quot;&gt;&amp;lt;&amp;lt;requirement&amp;gt;&amp;gt;&lt;br&gt;&lt;b&gt;Initiatives environnementales&lt;/b&gt;&lt;/p&gt;&lt;hr&gt;&lt;p&gt;&lt;/p&gt;&lt;p style=&quot;margin: 0px ; margin-left: 8px ; text-align: left&quot;&gt;Id=&quot;9&quot;&lt;br&gt;&lt;/p&gt;&lt;p style=&quot;margin: 0px ; margin-left: 8px ; text-align: left&quot;&gt;text=&quot;Mettre en œuvre des actions pour réduire l&#39;impact environnemental et promouvoir des pratiques durables.&lt;span&gt;&quot;&lt;/span&gt;&lt;/p&gt;&lt;p style=&quot;margin: 0px ; margin-left: 8px ; text-align: left&quot;&gt;&lt;br&gt;&lt;/p&gt;" style="shape=rect;overflow=fill;html=1;whiteSpace=wrap;align=center;strokeWidth=1;fillColor=#fad9d5;strokeColor=#ae4132;gradientColor=#ffffff;rounded=0;" parent="mcRKk9l3YKuYOQQODkug-1" vertex="1">
          <mxGeometry x="260" y="-450" width="230" height="150" as="geometry" />
        </mxCell>
        <mxCell id="NJ4r-btPFasgyIgzd2Xu-23" value="&lt;p style=&quot;margin: 0px ; margin-top: 4px ; text-align: center&quot;&gt;&amp;lt;&amp;lt;requirement&amp;gt;&amp;gt;&lt;br&gt;&lt;b&gt;Utilisation de matériaux recyclables&lt;/b&gt;&lt;/p&gt;&lt;hr&gt;&lt;p&gt;&lt;/p&gt;&lt;p style=&quot;margin: 0px ; margin-left: 8px ; text-align: left&quot;&gt;Id=&quot;9.2.&quot;&lt;br&gt;&lt;/p&gt;&lt;p style=&quot;margin: 0px ; margin-left: 8px ; text-align: left&quot;&gt;text=&quot;Préférer des matériaux recyclables ou biodégradables pour les équipements physiques et les emballages.&lt;span&gt;&quot;&lt;/span&gt;&lt;/p&gt;&lt;p style=&quot;margin: 0px ; margin-left: 8px ; text-align: left&quot;&gt;&lt;br&gt;&lt;/p&gt;" style="shape=rect;overflow=fill;html=1;whiteSpace=wrap;align=center;strokeWidth=1;fillColor=#fad9d5;strokeColor=#ae4132;gradientColor=#ffffff;" parent="mcRKk9l3YKuYOQQODkug-1" vertex="1">
          <mxGeometry x="460" y="-790" width="220" height="170" as="geometry" />
        </mxCell>
        <mxCell id="NJ4r-btPFasgyIgzd2Xu-24" value="&lt;p style=&quot;margin: 0px ; margin-top: 4px ; text-align: center&quot;&gt;&amp;lt;&amp;lt;requirement&amp;gt;&amp;gt;&lt;br&gt;&lt;b&gt;&amp;nbsp;Réduction de l&#39;empreinte écologique&lt;/b&gt;&lt;/p&gt;&lt;hr&gt;&lt;p&gt;&lt;/p&gt;&lt;p style=&quot;margin: 0px ; margin-left: 8px ; text-align: left&quot;&gt;Id=&quot;9.1.&quot;&lt;br&gt;&lt;/p&gt;&lt;p style=&quot;margin: 0px ; margin-left: 8px ; text-align: left&quot;&gt;text=&quot;Utiliser des équipements à faible consommation d&#39;énergie (par exemple, tablettes à haute efficacité énergétique).&lt;span&gt;&quot;&lt;/span&gt;&lt;/p&gt;&lt;p style=&quot;margin: 0px ; margin-left: 8px ; text-align: left&quot;&gt;&lt;br&gt;&lt;/p&gt;" style="shape=rect;overflow=fill;html=1;whiteSpace=wrap;align=center;strokeWidth=1;fillColor=#fad9d5;strokeColor=#ae4132;gradientColor=#ffffff;" parent="mcRKk9l3YKuYOQQODkug-1" vertex="1">
          <mxGeometry x="180" y="-780" width="220" height="150" as="geometry" />
        </mxCell>
        <mxCell id="NJ4r-btPFasgyIgzd2Xu-25" value="&amp;lt;&amp;lt;verify&amp;gt;&amp;gt;" style="edgeStyle=none;html=1;endArrow=open;endSize=12;dashed=1;verticalAlign=bottom;exitX=0.5;exitY=1;exitDx=0;exitDy=0;entryX=1;entryY=0;entryDx=0;entryDy=0;" parent="mcRKk9l3YKuYOQQODkug-1" source="NJ4r-btPFasgyIgzd2Xu-23" target="NJ4r-btPFasgyIgzd2Xu-22" edge="1">
          <mxGeometry x="-0.3263" y="-12" width="160" relative="1" as="geometry">
            <mxPoint x="90" y="-340" as="sourcePoint" />
            <mxPoint x="120" y="-482" as="targetPoint" />
            <mxPoint as="offset" />
          </mxGeometry>
        </mxCell>
        <mxCell id="NJ4r-btPFasgyIgzd2Xu-32" value="&lt;p style=&quot;margin: 0px ; margin-top: 4px ; text-align: center&quot;&gt;&amp;lt;&amp;lt;requirement&amp;gt;&amp;gt;&lt;br&gt;&lt;b&gt;&amp;nbsp;&lt;/b&gt;&lt;span style=&quot;background-color: transparent;&quot;&gt;&lt;b&gt;Optimisation énergétique&lt;/b&gt;&lt;/span&gt;&lt;/p&gt;&lt;hr&gt;&lt;p&gt;&lt;/p&gt;&lt;p style=&quot;margin: 0px ; margin-left: 8px ; text-align: left&quot;&gt;Id=&quot;10&quot;&lt;br&gt;&lt;/p&gt;&lt;p style=&quot;margin: 0px ; margin-left: 8px ; text-align: left&quot;&gt;text=&quot;&lt;span style=&quot;background-color: transparent;&quot;&gt;Réduire la consommation énergétique globale et améliorer l&#39;efficacité des équipements utilisés.&lt;/span&gt;&lt;span style=&quot;background-color: transparent; color: light-dark(rgb(0, 0, 0), rgb(255, 255, 255));&quot;&gt;&quot;&lt;/span&gt;&lt;/p&gt;&lt;p style=&quot;margin: 0px ; margin-left: 8px ; text-align: left&quot;&gt;&lt;br&gt;&lt;/p&gt;" style="shape=rect;overflow=fill;html=1;whiteSpace=wrap;align=center;strokeWidth=1;fillColor=#fad9d5;strokeColor=#ae4132;gradientColor=#ffffff;" parent="mcRKk9l3YKuYOQQODkug-1" vertex="1">
          <mxGeometry x="-30" y="-480" width="230" height="150" as="geometry" />
        </mxCell>
        <mxCell id="NJ4r-btPFasgyIgzd2Xu-33" value="&lt;p style=&quot;margin: 0px ; margin-top: 4px ; text-align: center&quot;&gt;&amp;lt;&amp;lt;requirement&amp;gt;&amp;gt;&lt;br&gt;&lt;b&gt;Optimisation de la consommation énergétique&lt;/b&gt;&lt;/p&gt;&lt;hr&gt;&lt;p&gt;&lt;/p&gt;&lt;p style=&quot;margin: 0px ; margin-left: 8px ; text-align: left&quot;&gt;Id=&quot;10.1.&quot;&lt;br&gt;&lt;/p&gt;&lt;p style=&quot;margin: 0px ; margin-left: 8px ; text-align: left&quot;&gt;text=&quot;&lt;span style=&quot;background-color: transparent; text-align: center;&quot;&gt;Configurer des mécanismes de veille automatique pour réduire la consommation en cas d&#39;inactivité des équipements (serveur, tablettes)&quot;&lt;/span&gt;&lt;/p&gt;&lt;p style=&quot;margin: 0px ; margin-left: 8px ; text-align: left&quot;&gt;&lt;br&gt;&lt;/p&gt;" style="shape=rect;overflow=fill;html=1;whiteSpace=wrap;align=center;strokeWidth=1;fillColor=#fad9d5;strokeColor=#ae4132;gradientColor=#ffffff;" parent="mcRKk9l3YKuYOQQODkug-1" vertex="1">
          <mxGeometry x="-340" y="-770" width="270" height="150" as="geometry" />
        </mxCell>
        <mxCell id="NJ4r-btPFasgyIgzd2Xu-34" value="&lt;p style=&quot;margin: 0px ; margin-top: 4px ; text-align: center&quot;&gt;&amp;lt;&amp;lt;requirement&amp;gt;&amp;gt;&lt;br&gt;&lt;b&gt;&amp;nbsp;Utilisation de technologies économes en énergie&lt;/b&gt;&lt;/p&gt;&lt;hr&gt;&lt;p&gt;&lt;/p&gt;&lt;p style=&quot;margin: 0px ; margin-left: 8px ; text-align: left&quot;&gt;Id=&quot;10&lt;span style=&quot;background-color: transparent; color: light-dark(rgb(0, 0, 0), rgb(255, 255, 255));&quot;&gt;.2.&quot;&lt;/span&gt;&lt;/p&gt;&lt;p style=&quot;margin: 0px ; margin-left: 8px ; text-align: left&quot;&gt;text=&quot;&lt;span style=&quot;background-color: transparent; text-align: center;&quot;&gt;Intégrer des équipements réseau (routeurs, switches) optimisés pour minimiser la consommation énergétique.&quot;&lt;/span&gt;&lt;/p&gt;&lt;p style=&quot;margin: 0px ; margin-left: 8px ; text-align: left&quot;&gt;&lt;br&gt;&lt;/p&gt;" style="shape=rect;overflow=fill;html=1;whiteSpace=wrap;align=center;strokeWidth=1;fillColor=#fad9d5;strokeColor=#ae4132;gradientColor=#ffffff;" parent="mcRKk9l3YKuYOQQODkug-1" vertex="1">
          <mxGeometry x="-60" y="-770" width="210" height="150" as="geometry" />
        </mxCell>
        <mxCell id="NJ4r-btPFasgyIgzd2Xu-39" value="&lt;p style=&quot;margin: 0px ; margin-top: 4px ; text-align: center&quot;&gt;&amp;lt;&amp;lt;requirement&amp;gt;&amp;gt;&lt;br&gt;&lt;b&gt;&amp;nbsp;&lt;/b&gt;&lt;span style=&quot;background-color: transparent;&quot;&gt;&lt;b&gt;Initiatives marketing&lt;/b&gt;&lt;/span&gt;&lt;/p&gt;&lt;hr&gt;&lt;p&gt;&lt;/p&gt;&lt;p style=&quot;margin: 0px ; margin-left: 8px ; text-align: left&quot;&gt;Id=&quot;11&quot;&lt;br&gt;&lt;/p&gt;&lt;p style=&quot;margin: 0px ; margin-left: 8px ; text-align: left&quot;&gt;text=&quot;Développer des stratégies marketing pour améliorer l&#39;engagement des clients et promouvoir le restaurant.&lt;span&gt;&quot;&lt;/span&gt;&lt;/p&gt;&lt;p style=&quot;margin: 0px ; margin-left: 8px ; text-align: left&quot;&gt;&lt;br&gt;&lt;/p&gt;" style="shape=rect;overflow=fill;html=1;whiteSpace=wrap;align=center;strokeWidth=1;fillColor=#DF42FF;strokeColor=#ae4132;gradientColor=#ffffff;" parent="mcRKk9l3YKuYOQQODkug-1" vertex="1">
          <mxGeometry x="-240" y="-300" width="230" height="150" as="geometry" />
        </mxCell>
        <mxCell id="NJ4r-btPFasgyIgzd2Xu-40" value="&lt;p style=&quot;margin: 0px ; margin-top: 4px ; text-align: center&quot;&gt;&amp;lt;&amp;lt;requirement&amp;gt;&amp;gt;&lt;br&gt;&lt;b&gt;Intégration des avis clients&lt;/b&gt;&lt;/p&gt;&lt;hr&gt;&lt;p&gt;&lt;/p&gt;&lt;p style=&quot;margin: 0px ; margin-left: 8px ; text-align: left&quot;&gt;Id=&quot;11.1.&quot;&lt;br&gt;&lt;/p&gt;&lt;p style=&quot;margin: 0px ; margin-left: 8px ; text-align: left&quot;&gt;text=&quot;&lt;span style=&quot;background-color: transparent; text-align: center;&quot;&gt;Fournir un espace dédié dans l&#39;application pour permettre aux clients de laisser des avis.&quot;&lt;/span&gt;&lt;/p&gt;&lt;p style=&quot;margin: 0px ; margin-left: 8px ; text-align: left&quot;&gt;&lt;br&gt;&lt;/p&gt;" style="shape=rect;overflow=fill;html=1;whiteSpace=wrap;align=center;strokeWidth=1;fillColor=#DF42FF;strokeColor=#ae4132;gradientColor=#ffffff;" parent="mcRKk9l3YKuYOQQODkug-1" vertex="1">
          <mxGeometry x="-560" y="-600" width="220" height="150" as="geometry" />
        </mxCell>
        <mxCell id="NJ4r-btPFasgyIgzd2Xu-41" value="&lt;p style=&quot;margin: 0px ; margin-top: 4px ; text-align: center&quot;&gt;&amp;lt;&amp;lt;requirement&amp;gt;&amp;gt;&lt;br&gt;&lt;b&gt;Promotions et fidélisation&lt;/b&gt;&lt;/p&gt;&lt;hr&gt;&lt;p&gt;&lt;/p&gt;&lt;p style=&quot;margin: 0px ; margin-left: 8px ; text-align: left&quot;&gt;Id=&quot;11.2.&quot;&lt;br&gt;&lt;/p&gt;&lt;p style=&quot;margin: 0px ; margin-left: 8px ; text-align: left&quot;&gt;text=&quot;Proposer des offres spéciales via l&#39;application, comme des réductions ou des points de fidélité.&lt;span&gt;&quot;&lt;/span&gt;&lt;/p&gt;&lt;p style=&quot;margin: 0px ; margin-left: 8px ; text-align: left&quot;&gt;&lt;br&gt;&lt;/p&gt;" style="shape=rect;overflow=fill;html=1;whiteSpace=wrap;align=center;strokeWidth=1;fillColor=#DF42FF;strokeColor=#ae4132;gradientColor=#ffffff;" parent="mcRKk9l3YKuYOQQODkug-1" vertex="1">
          <mxGeometry x="-560" y="-436" width="170" height="150" as="geometry" />
        </mxCell>
        <mxCell id="NJ4r-btPFasgyIgzd2Xu-42" value="&lt;p style=&quot;margin: 0px ; margin-top: 4px ; text-align: center&quot;&gt;&amp;lt;&amp;lt;requirement&amp;gt;&amp;gt;&lt;br&gt;&lt;b&gt;Partage sur les réseaux sociaux&lt;/b&gt;&lt;/p&gt;&lt;hr&gt;&lt;p&gt;&lt;/p&gt;&lt;p style=&quot;margin: 0px ; margin-left: 8px ; text-align: left&quot;&gt;Id=&quot;11.3.&quot;&lt;br&gt;&lt;/p&gt;&lt;p style=&quot;margin: 0px ; margin-left: 8px ; text-align: left&quot;&gt;text=&quot;Ajouter une fonctionnalité permettant aux utilisateurs de partager leur expérience ou des plats sur les réseaux sociaux.&lt;span&gt;&quot;&lt;/span&gt;&lt;/p&gt;&lt;p style=&quot;margin: 0px ; margin-left: 8px ; text-align: left&quot;&gt;&lt;br&gt;&lt;/p&gt;" style="shape=rect;overflow=fill;html=1;whiteSpace=wrap;align=center;strokeWidth=1;fillColor=#DF42FF;strokeColor=#ae4132;gradientColor=#ffffff;" parent="mcRKk9l3YKuYOQQODkug-1" vertex="1">
          <mxGeometry x="-560" y="-270" width="220" height="150" as="geometry" />
        </mxCell>
        <mxCell id="NJ4r-btPFasgyIgzd2Xu-44" value="&amp;lt;&amp;lt;verify&amp;gt;&amp;gt;" style="edgeStyle=none;html=1;endArrow=open;endSize=12;dashed=1;verticalAlign=bottom;entryX=0.25;entryY=0;entryDx=0;entryDy=0;exitX=1;exitY=0.75;exitDx=0;exitDy=0;" parent="mcRKk9l3YKuYOQQODkug-1" source="NJ4r-btPFasgyIgzd2Xu-40" target="NJ4r-btPFasgyIgzd2Xu-39" edge="1">
          <mxGeometry x="-0.3263" y="-12" width="160" relative="1" as="geometry">
            <mxPoint x="-930" y="-310" as="sourcePoint" />
            <mxPoint x="-949.9966666666669" y="-390" as="targetPoint" />
            <mxPoint as="offset" />
          </mxGeometry>
        </mxCell>
        <mxCell id="NJ4r-btPFasgyIgzd2Xu-46" style="rounded=0;orthogonalLoop=1;jettySize=auto;html=1;startArrow=circlePlus;startFill=0;endArrow=none;endFill=0;entryX=0.5;entryY=1;entryDx=0;entryDy=0;exitX=0.25;exitY=0;exitDx=0;exitDy=0;" parent="mcRKk9l3YKuYOQQODkug-1" source="mcRKk9l3YKuYOQQODkug-2" target="NJ4r-btPFasgyIgzd2Xu-32" edge="1">
          <mxGeometry relative="1" as="geometry">
            <mxPoint x="-245" y="-180" as="sourcePoint" />
            <mxPoint x="65" y="-460" as="targetPoint" />
          </mxGeometry>
        </mxCell>
        <mxCell id="NJ4r-btPFasgyIgzd2Xu-47" style="rounded=0;orthogonalLoop=1;jettySize=auto;html=1;startArrow=circlePlus;startFill=0;endArrow=none;endFill=0;entryX=1;entryY=0.5;entryDx=0;entryDy=0;exitX=0.25;exitY=0;exitDx=0;exitDy=0;" parent="mcRKk9l3YKuYOQQODkug-1" source="mcRKk9l3YKuYOQQODkug-2" target="NJ4r-btPFasgyIgzd2Xu-39" edge="1">
          <mxGeometry relative="1" as="geometry">
            <mxPoint x="-290" y="80" as="sourcePoint" />
            <mxPoint x="20" y="-200" as="targetPoint" />
          </mxGeometry>
        </mxCell>
        <mxCell id="NJ4r-btPFasgyIgzd2Xu-48" style="rounded=0;orthogonalLoop=1;jettySize=auto;html=1;startArrow=circlePlus;startFill=0;endArrow=none;endFill=0;entryX=0.5;entryY=1;entryDx=0;entryDy=0;exitX=0.5;exitY=0;exitDx=0;exitDy=0;" parent="mcRKk9l3YKuYOQQODkug-1" source="mcRKk9l3YKuYOQQODkug-2" target="NJ4r-btPFasgyIgzd2Xu-22" edge="1">
          <mxGeometry relative="1" as="geometry">
            <mxPoint x="90" y="-200" as="sourcePoint" />
            <mxPoint x="400" y="-480" as="targetPoint" />
          </mxGeometry>
        </mxCell>
        <mxCell id="NJ4r-btPFasgyIgzd2Xu-49" value="&amp;lt;&amp;lt;deriveRqt&amp;gt;&amp;gt;" style="edgeStyle=none;html=1;endArrow=open;endSize=12;dashed=1;verticalAlign=bottom;entryX=0.25;entryY=0;entryDx=0;entryDy=0;exitX=0.5;exitY=1;exitDx=0;exitDy=0;" parent="mcRKk9l3YKuYOQQODkug-1" source="NJ4r-btPFasgyIgzd2Xu-24" target="NJ4r-btPFasgyIgzd2Xu-22" edge="1">
          <mxGeometry x="-0.2068" y="9" width="160" relative="1" as="geometry">
            <mxPoint x="270" y="-720" as="sourcePoint" />
            <mxPoint x="270" y="-800" as="targetPoint" />
            <mxPoint as="offset" />
          </mxGeometry>
        </mxCell>
        <mxCell id="NJ4r-btPFasgyIgzd2Xu-51" value="&amp;lt;&amp;lt;refine&amp;gt;&amp;gt;" style="edgeStyle=none;html=1;endArrow=open;endSize=12;dashed=1;verticalAlign=bottom;exitX=0.807;exitY=1.007;exitDx=0;exitDy=0;entryX=0.25;entryY=0;entryDx=0;entryDy=0;exitPerimeter=0;" parent="mcRKk9l3YKuYOQQODkug-1" source="NJ4r-btPFasgyIgzd2Xu-33" target="NJ4r-btPFasgyIgzd2Xu-32" edge="1">
          <mxGeometry x="-0.0194" y="-1" width="160" relative="1" as="geometry">
            <mxPoint x="-170" y="-820" as="sourcePoint" />
            <mxPoint x="-72" y="-530" as="targetPoint" />
            <mxPoint as="offset" />
          </mxGeometry>
        </mxCell>
        <mxCell id="NJ4r-btPFasgyIgzd2Xu-53" value="&amp;lt;&amp;lt;deriveRqt&amp;gt;&amp;gt;" style="edgeStyle=none;html=1;endArrow=open;endSize=12;dashed=1;verticalAlign=bottom;exitX=0.592;exitY=0.99;exitDx=0;exitDy=0;entryX=0.5;entryY=0;entryDx=0;entryDy=0;exitPerimeter=0;" parent="mcRKk9l3YKuYOQQODkug-1" source="NJ4r-btPFasgyIgzd2Xu-34" target="NJ4r-btPFasgyIgzd2Xu-32" edge="1">
          <mxGeometry x="-0.1429" y="30" width="160" relative="1" as="geometry">
            <mxPoint x="-150" y="-730" as="sourcePoint" />
            <mxPoint x="-100" y="-750" as="targetPoint" />
            <mxPoint as="offset" />
          </mxGeometry>
        </mxCell>
        <mxCell id="NJ4r-btPFasgyIgzd2Xu-55" value="&amp;lt;&amp;lt;verify&amp;gt;&amp;gt;" style="edgeStyle=none;html=1;endArrow=open;endSize=12;dashed=1;verticalAlign=bottom;entryX=0;entryY=0.75;entryDx=0;entryDy=0;exitX=1;exitY=0.5;exitDx=0;exitDy=0;" parent="mcRKk9l3YKuYOQQODkug-1" edge="1">
          <mxGeometry x="0.0168" y="-11" width="160" relative="1" as="geometry">
            <mxPoint x="-340" y="-197" as="sourcePoint" />
            <mxPoint x="-239.99999999999977" y="-189.5" as="targetPoint" />
            <mxPoint as="offset" />
          </mxGeometry>
        </mxCell>
        <mxCell id="NJ4r-btPFasgyIgzd2Xu-56" value="&amp;lt;&amp;lt;deriveRqt&amp;gt;&amp;gt;" style="edgeStyle=none;html=1;endArrow=open;endSize=12;dashed=1;verticalAlign=bottom;exitX=1;exitY=0.5;exitDx=0;exitDy=0;entryX=0;entryY=0.25;entryDx=0;entryDy=0;" parent="mcRKk9l3YKuYOQQODkug-1" source="NJ4r-btPFasgyIgzd2Xu-41" target="NJ4r-btPFasgyIgzd2Xu-39" edge="1">
          <mxGeometry x="-0.0756" y="4" width="160" relative="1" as="geometry">
            <mxPoint x="-620" y="-550" as="sourcePoint" />
            <mxPoint x="-335" y="-260" as="targetPoint" />
            <mxPoint as="offset" />
          </mxGeometry>
        </mxCell>
        <mxCell id="kkGulvFGpplR4E4MdNnB-0" value="&lt;p style=&quot;margin: 0px ; margin-top: 4px ; text-align: center&quot;&gt;&amp;lt;&amp;lt;requirement&amp;gt;&amp;gt;&lt;br&gt;&lt;span style=&quot;font-size: 12px;&quot;&gt;&lt;b&gt;Tests d&#39;integration&lt;/b&gt;&lt;/span&gt;&lt;/p&gt;&lt;hr&gt;&lt;p&gt;&lt;/p&gt;&lt;p style=&quot;margin: 0px ; margin-left: 8px ; text-align: left&quot;&gt;Id=&quot;8.4.&quot;&lt;br&gt;&lt;/p&gt;&lt;p style=&quot;margin: 0px ; margin-left: 8px ; text-align: left&quot;&gt;text=&quot;Réaliser des tests d&#39;utilisabilité pour vérifier la bonne communication entre le front du site et le back du site et de vérifier le bon acheminement des commandes&lt;span&gt;&quot;&lt;/span&gt;&lt;/p&gt;&lt;p style=&quot;margin: 0px ; margin-left: 8px ; text-align: left&quot;&gt;&lt;br&gt;&lt;/p&gt;" style="shape=rect;overflow=fill;html=1;whiteSpace=wrap;align=center;strokeWidth=1;fillColor=#3DFF63;strokeColor=#ae4132;gradientColor=#ffffff;" parent="mcRKk9l3YKuYOQQODkug-1" vertex="1">
          <mxGeometry x="880" y="-120" width="220" height="150" as="geometry" />
        </mxCell>
        <mxCell id="kkGulvFGpplR4E4MdNnB-1" value="&amp;lt;&amp;lt;refine&amp;gt;&amp;gt;" style="edgeStyle=none;html=1;endArrow=open;endSize=12;dashed=1;verticalAlign=bottom;exitX=0.164;exitY=-0.024;exitDx=0;exitDy=0;entryX=1;entryY=0.75;entryDx=0;entryDy=0;exitPerimeter=0;" parent="mcRKk9l3YKuYOQQODkug-1" source="kkGulvFGpplR4E4MdNnB-0" target="kWydDfq1rh9on7qYREXL-15" edge="1">
          <mxGeometry x="0.1224" y="4" width="160" relative="1" as="geometry">
            <mxPoint x="1510" y="15" as="sourcePoint" />
            <mxPoint x="1370" y="143" as="targetPoint" />
            <mxPoint as="offset" />
          </mxGeometry>
        </mxCell>
      </root>
    </mxGraphModel>
  </diagram>
  <diagram id="LDTtKJ3F97WnQdO1-KFz" name="Page-2">
    <mxGraphModel dx="1434" dy="772" grid="1" gridSize="10" guides="1" tooltips="1" connect="1" arrows="1" fold="1" page="1" pageScale="1" pageWidth="827" pageHeight="1169" math="0" shadow="0">
      <root>
        <mxCell id="0" />
        <mxCell id="1" parent="0" />
      </root>
    </mxGraphModel>
  </diagram>
</mxfile>
